<svg width="31" height="19" viewBox="0 0 31 19" fill="none" xmlns="http://www.w3.org/2000/svg">
<path d="M8.53534 6.7262C8.50128 7.82043 9.03683 8.30499 9.05008 8.61272C9.04377 8.67536 9.02287 8.73554 8.98912 8.78824C8.95538 8.84093 8.90977 8.88461 8.8561 8.91563L8.25053 9.34849C8.17216 9.40459 8.07978 9.43676 7.98418 9.44124C7.96383 9.44028 7.59671 9.52965 7.01526 8.20402C6.66052 8.65618 6.20917 9.01947 5.69575 9.26607C5.18234 9.51267 4.62047 9.63605 4.05317 9.62676C3.28295 9.66975 1.19563 9.18037 1.30302 6.91123C1.2278 5.06191 2.91441 3.91309 4.65874 4.01019C4.99464 4.01116 5.68064 4.02807 6.88185 4.3131V3.55849C7.00911 2.2802 6.18639 1.28839 4.76187 1.43719C4.64833 1.43767 3.84405 1.41303 2.59317 1.9256C2.24497 2.08889 2.2005 2.06184 2.08459 2.06184C1.73402 2.06184 1.87831 1.02413 1.94549 0.892728C2.19198 0.583542 3.64204 0.00623273 5.06513 0.0144455C6.01666 -0.0714855 6.96308 0.228388 7.69984 0.849248C7.99933 1.19133 8.22782 1.59184 8.3715 2.0266C8.51518 2.46136 8.57108 2.92134 8.53581 3.37878L8.53534 6.7262ZM4.44679 8.29097C5.98106 8.26827 6.63063 7.32622 6.77871 6.81896C6.89509 6.33344 6.8757 6.02619 6.8757 5.49525C6.41821 5.38317 5.75965 5.26095 5.0041 5.25998C4.28735 5.20491 2.97828 5.53197 3.02937 6.81848C2.97071 7.62961 3.55546 8.33542 4.44679 8.29097ZM12.5331 9.40453C12.1612 9.43931 11.988 9.16974 11.9332 8.90355L9.57711 0.949251C9.53122 0.814948 9.50094 0.676297 9.48628 0.534748C9.47759 0.47639 9.49194 0.416897 9.52618 0.369339C9.56042 0.321782 9.61175 0.290051 9.66889 0.281118C9.68025 0.279186 9.56812 0.281118 10.7215 0.281118C11.1369 0.238605 11.2722 0.57243 11.3153 0.782097L13.0052 7.58564L14.574 0.782097C14.5991 0.626538 14.7131 0.247301 15.1796 0.287399H15.9914C16.0941 0.278703 16.5171 0.263244 16.5913 0.788377L18.1724 7.67888L19.9168 0.788377C19.9395 0.683061 20.0455 0.239089 20.5167 0.287399H21.4496C21.4898 0.281119 21.7406 0.248267 21.698 0.701902C21.6777 0.791276 21.8593 0.186914 19.2024 8.90983C19.148 9.17602 18.9744 9.44559 18.6025 9.41081H17.7183C17.2007 9.46637 17.1264 8.94413 17.1184 8.89147L15.5496 2.26667L13.9987 8.88471C13.9912 8.93737 13.9169 9.4596 13.3988 9.40405H12.5331V9.40453ZM25.4715 9.67652C25.1933 9.677 23.8667 9.66202 22.7578 9.08278C22.6473 9.03502 22.5532 8.95484 22.4874 8.85241C22.4216 8.74997 22.3871 8.6299 22.3883 8.50741V7.98807C22.3883 7.57985 22.6816 7.65473 22.806 7.70352C23.281 7.89966 23.5857 8.04846 24.169 8.1673C25.9029 8.53108 26.6656 8.05619 26.8525 7.95087C27.4746 7.57357 27.5238 6.71026 27.1008 6.26242C26.605 5.83778 26.3685 5.82183 24.5872 5.24791C24.3677 5.18559 22.5198 4.5904 22.5155 2.71838C22.4867 1.35409 23.7006 0.00430015 25.8045 0.0154115C26.404 0.0149284 28.0012 0.214933 28.4336 0.770019C28.4974 0.870988 28.5291 0.989832 28.5244 1.11012V1.59854C28.5244 1.81304 28.4478 1.92029 28.294 1.92029C27.9292 1.87874 27.282 1.38066 25.9682 1.40095C25.6423 1.38356 24.081 1.44492 24.151 2.60726C24.1307 3.52323 25.41 3.86671 25.5562 3.90633C27.2811 4.43629 27.8578 4.52422 28.5424 5.33535C29.3533 6.41025 28.9161 7.66874 28.7482 8.01367C27.8455 9.82483 25.5112 9.67748 25.4715 9.67652ZM27.3733 14.7423C24.0602 17.241 19.2506 18.5709 15.1441 18.5709C9.60316 18.6082 4.24894 16.5278 0.133984 12.7384C-0.174952 12.4539 0.0975548 12.064 0.473198 12.2809C5.03791 14.9473 10.2061 16.3482 15.4649 16.3448C19.392 16.3233 23.2762 15.5098 26.8946 13.951C27.4519 13.7095 27.9245 14.3278 27.3733 14.7423ZM28.7543 13.1341C28.3304 12.5776 25.9498 12.8742 24.8839 13.0041C24.5626 13.0413 24.5082 12.7568 24.7992 12.5466C26.6949 11.1857 29.8084 11.5756 30.1661 12.0331C30.5233 12.4906 30.0691 15.6762 28.2945 17.198C28.022 17.4332 27.7613 17.3091 27.8824 16.9999C28.2817 15.9733 29.1782 13.6911 28.7543 13.1341Z" fill="white"/>
</svg>
