<svg width="46" height="46" viewBox="0 0 46 46" fill="none" xmlns="http://www.w3.org/2000/svg">
<path d="M24.9322 13.2272H20.6641V17.1079H24.9322V13.2272Z" fill="#099CEC"/>
<path d="M24.9322 17.8892H20.6641V21.7247H24.9322V17.8892Z" fill="#099CEC"/>
<path d="M19.8892 13.2272H15.6211V17.1079H19.8892V13.2272Z" fill="#099CEC"/>
<path d="M29.9816 17.8828H25.7134V21.7183H29.9816V17.8828Z" fill="#099CEC"/>
<path d="M24.9322 8.53291H20.6641V12.4523H24.9322V8.53291Z" fill="#099CEC"/>
<path d="M14.8462 13.2272H10.5781V17.1079H14.8462V13.2272Z" fill="#099CEC"/>
<path d="M19.8892 17.8828H15.6211V21.7183H19.8892V17.8828Z" fill="#099CEC"/>
<path d="M42.8052 19.6843C41.8753 19.0579 39.7316 18.832 38.085 19.142C37.872 17.5923 37.0066 16.2428 35.4312 15.0288L34.5272 14.4282L33.9266 15.3322C32.7384 17.1273 32.4157 20.0846 33.6878 22.0347C33.1261 22.3381 32.0217 22.7515 30.5625 22.7255H2.49369C1.93199 26.0058 2.86825 30.2675 5.33491 33.1924C7.73042 36.0271 11.3206 37.4671 16.0148 37.4671C26.1783 37.4671 33.7007 32.7859 37.2198 24.2816C38.6017 24.3075 41.5848 24.2882 43.1152 21.3632C43.2121 21.2018 43.5413 20.5108 43.6639 20.259L42.8052 19.6843Z" fill="#099CEC"/>
<path d="M9.80962 17.8828H9.80306H5.5415V21.7183H9.80962V17.8828Z" fill="#099CEC"/>
<path d="M14.8462 17.8828H10.5781V21.7183H14.8462V17.8828Z" fill="#099CEC"/>
</svg>
