<svg width="1203" height="197" viewBox="0 0 1203 197" fill="none" xmlns="http://www.w3.org/2000/svg">
<path d="M62.3366 390.891L1.13678 391.045L134.565 3.50885L194.965 3.35728L62.3366 390.891ZM298.056 35.8987C339.656 35.7943 371.541 43.181 393.712 58.0587C415.882 72.6698 427.006 95.5753 427.084 126.775C427.133 146.242 422.64 162.12 413.604 174.409C404.834 186.431 392.058 195.93 375.275 202.905C380.893 209.825 386.779 217.81 392.935 226.861C399.091 235.646 405.114 244.964 411.006 254.816C417.163 264.401 423.055 274.519 428.682 285.172C434.308 295.558 439.534 305.811 444.359 315.932L374.359 316.108C369.27 307.054 364.047 297.867 358.69 288.547C353.6 279.227 348.244 270.174 342.622 261.388C337.266 252.601 331.912 244.348 326.56 236.628C321.206 228.641 315.855 221.455 310.506 215.068L279.706 215.145L279.96 316.345L217.56 316.502L216.874 43.3024C230.467 40.6017 244.463 38.6999 258.86 37.5971C273.524 36.4936 286.589 35.9275 298.056 35.8987ZM301.789 89.0895C297.256 89.1009 293.123 89.2446 289.39 89.5206C285.924 89.796 282.592 90.071 279.392 90.3457L279.581 165.545L297.181 165.501C320.648 165.442 337.44 162.467 347.559 156.575C357.677 150.683 362.719 140.67 362.684 126.537C362.649 112.937 357.425 103.35 347.011 97.7761C336.863 91.9348 321.789 89.0393 301.789 89.0895ZM666.734 209.774C666.775 226.307 664.414 241.513 659.648 255.392C654.883 269.004 647.979 280.755 638.937 290.644C629.894 300.267 618.98 307.761 606.193 313.126C593.673 318.491 579.547 321.193 563.813 321.233C548.347 321.272 534.207 318.64 521.393 313.339C508.847 308.037 498.028 300.598 488.937 291.021C479.846 281.177 472.75 269.461 467.649 255.874C462.548 242.02 459.976 226.826 459.935 210.293C459.893 193.76 462.389 178.687 467.421 165.074C472.72 151.461 479.891 139.843 488.934 130.22C498.243 120.597 509.158 113.103 521.677 107.738C534.464 102.372 548.324 99.6709 563.257 99.6334C578.457 99.5953 592.331 102.227 604.877 107.529C617.691 112.83 628.643 120.269 637.733 129.847C646.824 139.424 653.92 151.006 659.021 164.593C664.121 178.181 666.693 193.241 666.734 209.774ZM605.934 209.927C605.888 191.527 602.119 177.136 594.626 166.755C587.399 156.106 576.986 150.799 563.386 150.833C549.786 150.867 539.266 156.227 531.826 166.912C524.385 177.331 520.688 191.741 520.734 210.14C520.781 228.54 524.551 243.198 532.045 254.112C539.538 264.76 550.085 270.067 563.685 270.033C577.285 269.999 587.671 264.639 594.845 253.955C602.284 243.003 605.98 228.327 605.934 209.927ZM713.168 315.258L712.413 14.4589L771.988 4.70933L772.241 105.509C776.238 104.166 781.302 102.953 787.432 101.871C793.829 100.521 799.961 99.8394 805.827 99.8247C822.894 99.7819 837.033 102.146 848.245 106.918C859.723 111.423 868.806 117.933 875.494 126.45C882.449 134.966 887.274 145.087 889.971 156.814C892.933 168.54 894.433 181.603 894.469 196.003L894.767 314.802L835.167 314.952L834.887 203.352C834.839 184.152 832.272 170.559 827.185 162.571C822.365 154.583 813.288 150.606 799.955 150.64C794.621 150.653 789.556 151.199 784.759 152.278C780.228 153.089 776.097 154.033 772.366 155.109L772.767 315.108L713.168 315.258ZM1008.31 314.517L948.714 314.667L948.186 104.267L1007.79 104.118L1008.31 314.517ZM1013.23 43.3041C1013.26 54.2374 1009.68 62.913 1002.5 69.3311C995.58 75.4818 987.321 78.5692 977.721 78.5933C968.121 78.6174 959.714 75.5718 952.498 69.4566C945.549 63.074 942.061 54.416 942.033 43.4827C942.006 32.5494 945.451 24.0074 952.369 17.8567C959.553 11.4387 967.945 8.21761 977.545 8.19352C987.145 8.16943 995.419 11.3487 1002.37 17.7313C1009.58 23.8465 1013.21 32.3708 1013.23 43.3041ZM1061.68 51.5825L1121.25 41.833L1121.41 103.833L1193.01 103.653L1193.13 153.253L1121.53 153.433L1121.72 227.432C1121.75 239.966 1123.91 249.96 1128.2 257.416C1132.75 264.872 1141.69 268.582 1155.02 268.549C1161.42 268.533 1167.96 267.983 1174.62 266.9C1181.55 265.549 1187.81 263.8 1193.41 261.653L1201.92 308.031C1194.73 310.983 1186.74 313.536 1177.94 315.692C1169.15 317.847 1158.35 318.941 1145.55 318.973C1129.28 319.014 1115.81 316.914 1105.13 312.674C1094.46 308.168 1085.91 302.056 1079.49 294.339C1073.07 286.355 1068.51 276.766 1065.82 265.573C1063.39 254.379 1062.16 241.982 1062.12 228.382L1061.68 51.5825Z" fill="white"/>
</svg>
