<svg width="35" height="36" viewBox="0 0 35 36" fill="none" xmlns="http://www.w3.org/2000/svg">
<path d="M29.8025 18.9983L29.8013 18.9977L16.5213 5.32934C15.8048 4.59069 14.5511 4.59133 13.8371 5.32871L0.554621 18.9983C0.197638 19.3676 0 19.8578 0 20.3784C0 20.8996 0.197638 21.3902 0.555856 21.7589L13.8359 35.4273C14.1941 35.7966 14.6709 36 15.1786 36C15.6863 36 16.1631 35.7966 16.52 35.4279L29.8013 21.7589C30.1595 21.3902 30.3572 20.8996 30.3572 20.3784C30.3572 19.8578 30.1595 19.3676 29.8025 18.9983Z" fill="#EF473B"/>
<path opacity="0.1" d="M29.9537 21.2853L16.5341 35.0967C16.1735 35.4692 15.6916 35.6748 15.1787 35.6748C14.6658 35.6748 14.184 35.4692 13.822 35.096L0.40367 21.2853C0.246872 21.1239 0.127054 20.9362 0.0341797 20.736C0.103198 21.121 0.281227 21.4761 0.55599 21.7589L13.836 35.4273C14.1942 35.7966 14.671 36 15.1787 36C15.6864 36 16.1632 35.7966 16.5202 35.4279L29.8014 21.7589C30.0762 21.4761 30.2543 21.121 30.3233 20.736C30.2304 20.9362 30.1105 21.1239 29.9537 21.2853Z" fill="#010101"/>
<path d="M21.5028 17.7857C21.0286 17.7857 20.5896 17.9289 20.2098 18.1634L17.341 15.2126C17.5689 14.8221 17.7082 14.3705 17.7082 13.8827C17.7082 12.4476 16.573 11.2806 15.1784 11.2806C14.7105 11.2806 14.2774 11.4209 13.9011 11.6496L10.7974 8.4568L9.90332 9.3769L13.0069 12.5696C12.7849 12.9565 12.6486 13.4017 12.6486 13.8827C12.6486 15.0917 13.4582 16.1014 14.546 16.3923V24.3833C13.4582 24.6741 12.6486 25.6838 12.6486 26.8929C12.6486 28.3279 13.7838 29.4949 15.1784 29.4949C16.573 29.4949 17.7082 28.3279 17.7082 26.8929C17.7082 25.6838 16.8986 24.6741 15.8108 24.3833V16.3923C16.0344 16.3325 16.2441 16.2416 16.4393 16.1249L19.3228 19.0908C19.1063 19.4742 18.973 19.9133 18.973 20.3878C18.973 21.8228 20.1082 22.9898 21.5028 22.9898C22.8974 22.9898 24.0326 21.8228 24.0326 20.3878C24.0326 18.9527 22.8974 17.7857 21.5028 17.7857Z" fill="white"/>
<path opacity="0.2" d="M0.554621 19.3236L13.8371 5.65396C14.5511 4.91658 15.8048 4.91595 16.5213 5.6546L29.8013 19.3229L29.8025 19.3236C30.1217 19.6538 30.3047 20.0824 30.3417 20.5411C30.3461 20.4866 30.3572 20.4336 30.3572 20.3784C30.3572 19.8578 30.1595 19.3676 29.8025 18.9983L29.8013 18.9977L16.5213 5.32934C15.8048 4.59069 14.5511 4.59133 13.8371 5.32871L0.554621 18.9983C0.197638 19.3676 0 19.8578 0 20.3784C0 20.4335 0.0110399 20.4865 0.0154404 20.5409C0.0525747 20.0822 0.235544 19.6537 0.554621 19.3236Z" fill="white"/>
<path d="M23.4621 18.762C23.8134 19.2088 24.0328 19.7696 24.0328 20.3878C24.0328 21.8228 22.8976 22.9898 21.503 22.9898C20.1085 22.9898 18.9733 21.8228 18.9733 20.3878C18.9733 19.9133 19.1065 19.4742 19.3231 19.0908L16.4396 16.1249C16.2443 16.2416 16.0347 16.3325 15.8111 16.3923V24.3833C16.8989 24.6742 17.7084 25.6838 17.7084 26.8929C17.7084 28.328 16.5732 29.4949 15.1786 29.4949C14.5317 29.4949 13.9469 29.2365 13.499 28.8239L18.2193 33.6791L28.0891 23.5211L23.4621 18.762ZM17.3412 15.2126L20.2101 18.1634C20.5898 17.9289 21.0289 17.7857 21.503 17.7857C22.104 17.7857 22.6493 18.0115 23.0839 18.373L17.1672 12.2871L17.1641 12.2898C17.4999 12.7313 17.7084 13.2798 17.7084 13.8827C17.7084 14.3705 17.5691 14.8221 17.3412 15.2126Z" fill="url(#paint0_linear_261_185)"/>
<path d="M29.8025 18.9983L29.8013 18.9977L16.5213 5.32934C15.8048 4.59069 14.5511 4.59133 13.8371 5.32871L0.554621 18.9983C0.197638 19.3676 0 19.8578 0 20.3784C0 20.8996 0.197638 21.3902 0.555856 21.7589L13.8359 35.4273C14.1941 35.7966 14.6709 36 15.1786 36C15.6863 36 16.1631 35.7966 16.52 35.4279L29.8013 21.7589C30.1595 21.3902 30.3572 20.8996 30.3572 20.3784C30.3572 19.8578 30.1595 19.3676 29.8025 18.9983Z" fill="url(#paint1_linear_261_185)"/>
<defs>
<linearGradient id="paint0_linear_261_185" x1="12.2305" y1="17.3643" x2="23.4634" y2="28.2852" gradientUnits="userSpaceOnUse">
<stop stop-color="#010101" stop-opacity="0.1"/>
<stop offset="1" stop-color="#010101" stop-opacity="0"/>
</linearGradient>
<linearGradient id="paint1_linear_261_185" x1="2.54724" y1="14.3249" x2="28.0559" y2="25.8894" gradientUnits="userSpaceOnUse">
<stop stop-color="white" stop-opacity="0.2"/>
<stop offset="1" stop-color="white" stop-opacity="0"/>
</linearGradient>
</defs>
</svg>
