<svg width="19" height="38" viewBox="0 0 19 38" fill="none" xmlns="http://www.w3.org/2000/svg">
<path d="M12.6542 4.32513C11.1064 2.46922 9.77351 0.584311 9.51553 0.19283C9.48687 0.163832 9.44387 0.163832 9.41521 0.19283C9.1429 0.584311 7.81003 2.46922 6.26217 4.32513C-7.00925 21.4488 8.35464 33.0047 8.35464 33.0047L8.48363 33.0917C8.59829 34.8751 8.88492 37.4415 8.88492 37.4415H9.4582H10.0315C10.0315 37.4415 10.3181 34.8896 10.4328 33.0917L10.5618 32.9902C10.5618 33.0047 25.9257 21.4488 12.6542 4.32513ZM9.4582 32.7437C9.4582 32.7437 8.77027 32.1493 8.58395 31.8448V31.8158L9.41521 13.1697C9.41521 13.1117 9.5012 13.1117 9.5012 13.1697L10.3181 31.8158V31.8448C10.1318 32.1493 9.4582 32.7437 9.4582 32.7437Z" fill="#00BB85"/>
</svg>
