<svg width="37" height="36" viewBox="0 0 37 36" fill="none" xmlns="http://www.w3.org/2000/svg">
<path d="M11.1 10.8L12.0998 10.0974C11.7866 9.67546 11.2295 9.49807 10.7206 9.6582C10.2115 9.81835 9.86667 10.2795 9.86667 10.8H11.1ZM18.5 33.6C9.64504 33.6 2.46667 26.6158 2.46667 18H0C0 27.941 8.28272 36 18.5 36V33.6ZM34.5333 18C34.5333 26.6158 27.3551 33.6 18.5 33.6V36C28.7172 36 37 27.941 37 18H34.5333ZM18.5 2.4C27.3551 2.4 34.5333 9.38436 34.5333 18H37C37 8.05886 28.7172 0 18.5 0V2.4ZM18.5 0C8.28272 0 0 8.05886 0 18H2.46667C2.46667 9.38436 9.64504 2.4 18.5 2.4V0ZM12.3333 28.8V10.8H9.86667V28.8H12.3333ZM10.1002 11.5026L26.1336 33.1025L28.1331 31.6975L12.0998 10.0974L10.1002 11.5026ZM24.6667 9.6V24H27.1333V9.6H24.6667Z" fill="white"/>
</svg>
