<svg width="42" height="42" viewBox="0 0 42 42" fill="none" xmlns="http://www.w3.org/2000/svg">
<path d="M20.9924 39.8671C20.4907 39.8671 19.9815 39.7324 19.5398 39.4778L14.9199 36.7448C14.2311 36.3554 14.568 36.2207 14.7926 36.1458C15.7135 35.8238 15.9007 35.7565 16.8816 35.1949C16.9865 35.1351 17.1213 35.1574 17.226 35.2249L20.7752 37.3288C20.9025 37.4036 21.0821 37.4036 21.2019 37.3288L35.0317 29.3469C35.1591 29.272 35.2413 29.1223 35.2413 28.9725V13.0088C35.2413 12.8515 35.1591 12.7093 35.0243 12.627L21.202 4.65249C21.0748 4.5776 20.9026 4.5776 20.7753 4.65249L6.96046 12.6344C6.8256 12.7093 6.74332 12.859 6.74332 13.0162V28.9725C6.74332 29.1223 6.8256 29.272 6.96046 29.3395L10.7493 31.5258C12.8085 32.5516 14.0663 31.3461 14.0663 30.1257V14.3715C14.0663 14.1469 14.246 13.9747 14.4708 13.9747H16.2229C16.44 13.9747 16.6271 14.1469 16.6271 14.3715V30.1332C16.6271 32.8736 15.1295 34.4461 12.5314 34.4461C11.7302 34.4461 11.1012 34.4461 9.34913 33.5775L5.72507 31.4884C4.8265 30.9717 4.27246 30.0058 4.27246 28.9652V13.0088C4.27246 11.9755 4.8265 11.0021 5.72507 10.4855L19.5398 2.50352C20.4158 2.00936 21.5765 2.00936 22.445 2.50352L36.275 10.4929C37.1735 11.0095 37.7275 11.9754 37.7275 13.0162V28.9725C37.7275 30.0058 37.1735 30.9717 36.275 31.4959L22.445 39.4778C22.0032 39.7324 21.5014 39.8671 20.9924 39.8671ZM32.1567 24.1356C32.1567 21.1479 30.1349 20.3543 25.8895 19.7928C21.5914 19.2236 21.1572 18.9316 21.1572 17.9283C21.1572 17.0972 21.5241 15.989 24.7064 15.989C27.5443 15.989 28.5926 16.603 29.0268 18.5199C29.0643 18.6995 29.2292 18.8343 29.4161 18.8343H31.2134C31.3255 18.8343 31.4304 18.7894 31.5054 18.707C31.5803 18.6247 31.6177 18.5123 31.61 18.3999C31.3331 15.098 29.1391 13.563 24.7064 13.563C20.7604 13.563 18.4093 15.2253 18.4093 18.0182C18.4093 21.0432 20.7529 21.8819 24.5341 22.2561C29.0643 22.698 29.4161 23.3644 29.4161 24.2554C29.4161 25.798 28.1733 26.4567 25.2606 26.4567C21.5991 26.4567 20.7978 25.5358 20.5283 23.7164C20.4983 23.5217 20.3335 23.3795 20.1315 23.3795H18.3418C18.1172 23.3795 17.9451 23.5592 17.9451 23.7762C17.9451 26.1051 19.2105 28.883 25.2681 28.883C29.6408 28.8754 32.1567 27.1455 32.1567 24.1356Z" fill="#539E43"/>
</svg>
