<svg width="37" height="36" viewBox="0 0 37 36" fill="none" xmlns="http://www.w3.org/2000/svg">
<g clip-path="url(#clip0_261_162)">
<path d="M1.3875 0H35.6125C36.3788 0 37 0.604412 37 1.35V34.65C37 35.3956 36.3788 36 35.6125 36H1.3875C0.621202 36 0 35.3956 0 34.65V1.35C0 0.604412 0.621202 0 1.3875 0Z" fill="white"/>
<path d="M1.3875 0H35.6125C36.3788 0 37 0.604412 37 1.35V34.65C37 35.3956 36.3788 36 35.6125 36H1.3875C0.621202 36 0 35.3956 0 34.65V1.35C0 0.604412 0.621202 0 1.3875 0ZM20.5677 19.152V16.1994H7.39972V19.152H12.101V32.2984H15.8434V19.152H20.5677ZM22.0598 31.9512C22.6634 32.2506 23.3772 32.4752 24.2013 32.6249C25.0252 32.7745 25.8937 32.8494 26.8068 32.8494C27.6966 32.8494 28.5419 32.7671 29.3427 32.6024C30.1436 32.4378 30.8458 32.1664 31.4493 31.7884C32.0528 31.4104 32.5305 30.9165 32.8826 30.3065C33.2347 29.6964 33.4107 28.9423 33.4107 28.0441C33.4107 27.393 33.3101 26.8224 33.109 26.3321C32.9078 25.8418 32.6176 25.4058 32.2385 25.024C31.8594 24.6423 31.4047 24.2999 30.8748 23.9968C30.3447 23.6937 29.747 23.4073 29.0816 23.1379C28.5942 22.9432 28.157 22.7542 27.7701 22.5709C27.3833 22.3876 27.0544 22.2004 26.7836 22.0096C26.5128 21.8186 26.3039 21.6166 26.1569 21.4032C26.0099 21.19 25.9363 20.9485 25.9363 20.6791C25.9363 20.4321 26.0022 20.2094 26.1337 20.0112C26.2652 19.8127 26.4509 19.6424 26.6908 19.5002C26.9306 19.358 27.2246 19.2477 27.5728 19.169C27.9211 19.0905 28.3078 19.0512 28.7335 19.0512C29.0429 19.0512 29.3699 19.0736 29.7141 19.1185C30.0585 19.1635 30.4048 19.2327 30.7528 19.3262C31.1011 19.4198 31.4396 19.5376 31.7685 19.68C32.0974 19.8222 32.401 19.9868 32.6795 20.1738V16.817C32.1147 16.6074 31.4977 16.452 30.8284 16.3511C30.159 16.25 29.3911 16.1994 28.5246 16.1994C27.6424 16.1994 26.8068 16.2911 26.0175 16.4746C25.2283 16.6579 24.534 16.9442 23.9343 17.3334C23.3346 17.7227 22.8607 18.2185 22.5125 18.8209C22.1643 19.4235 21.9902 20.1439 21.9902 20.9822C21.9902 22.0526 22.3094 22.9658 22.9478 23.7216C23.5861 24.4776 24.5552 25.1176 25.8552 25.6416C26.3658 25.8437 26.8417 26.042 27.2827 26.2367C27.7237 26.4312 28.1048 26.6334 28.4258 26.8428C28.747 27.0525 29.0003 27.2807 29.186 27.5277C29.3717 27.7747 29.4647 28.0554 29.4647 28.3698C29.4647 28.6019 29.4066 28.817 29.2905 29.0153C29.1745 29.2137 28.9985 29.3858 28.7625 29.5318C28.5264 29.6777 28.2324 29.7919 27.8804 29.8742C27.5283 29.9566 27.1163 29.9977 26.6443 29.9977C25.8397 29.9977 25.0427 29.8612 24.2535 29.588C23.4643 29.3148 22.7331 28.905 22.0598 28.3586V31.9512Z" fill="#3178C6"/>
</g>
<defs>
<clipPath id="clip0_261_162">
<rect width="37" height="36" fill="white"/>
</clipPath>
</defs>
</svg>
