<svg width="180" height="70" viewBox="0 0 180 70" fill="none" xmlns="http://www.w3.org/2000/svg">
<rect width="180" height="70" fill="black"/>
<path d="M30.544 69.192C27.664 69.192 25.216 68.44 23.2 66.936C21.184 65.432 19.712 63.368 18.784 60.744C18.496 59.912 18.192 59.048 17.872 58.152C17.552 57.256 17.248 56.36 16.96 55.464C16.832 55.112 16.704 54.76 16.576 54.408C16.48 54.024 16.368 53.672 16.24 53.352C16.112 52.904 15.968 52.488 15.808 52.104C15.68 51.688 15.552 51.304 15.424 50.952C15.232 50.344 14.992 49.64 14.704 48.84C14.416 48.008 14.144 47.256 13.888 46.584C13.76 46.136 13.632 45.736 13.504 45.384C13.376 45.032 13.264 44.728 13.168 44.472C13.072 44.152 12.96 43.816 12.832 43.464C12.704 43.112 12.576 42.744 12.448 42.36C12.352 41.976 12.224 41.576 12.064 41.16C11.392 39.112 10.592 36.664 9.664 33.816C8.736 30.936 7.792 28.008 6.832 25.032C5.872 22.024 4.976 19.24 4.144 16.68C3.344 14.12 2.72 12.104 2.272 10.632C1.504 8.04 1.552 6.072 2.416 4.72799C3.28 3.352 4.576 2.664 6.304 2.664C7.456 2.664 8.432 3.096 9.232 3.96C10.064 4.824 10.72 6.12 11.2 7.848C12.896 13.544 14.544 19.432 16.144 25.512C17.776 31.56 19.52 37.448 21.376 43.176C21.92 44.936 22.528 46.2 23.2 46.968C23.904 47.736 24.8 48.12 25.888 48.12C26.912 48.12 27.856 47.768 28.72 47.064C29.584 46.328 30.368 45.16 31.072 43.56C33.824 37.16 36.448 30.76 38.944 24.36C41.44 17.928 44 11.528 46.624 5.16C47.296 3.56 48.064 2.408 48.928 1.704C49.792 0.999998 50.72 0.647999 51.712 0.647999C53.6 0.647999 54.768 1.336 55.216 2.712C55.696 4.088 55.712 5.736 55.264 7.65599C53.984 13.544 52.624 19.448 51.184 25.368C49.744 31.256 48.256 37.128 46.72 42.984C45.024 42.344 43.44 41.864 41.968 41.544C40.496 41.224 39.312 41.224 38.416 41.544C37.552 41.864 37.12 42.68 37.12 43.992C37.12 44.888 37.696 45.656 38.848 46.296C40.032 46.904 42.24 47.528 45.472 48.168C45.28 49.032 45.056 49.864 44.8 50.664C44.576 51.464 44.32 52.296 44.032 53.16C41.76 52.392 39.712 51.816 37.888 51.432C36.096 51.016 34.672 50.968 33.616 51.288C32.592 51.576 32.08 52.376 32.08 53.688C32.08 54.648 32.8 55.48 34.24 56.184C35.68 56.888 38.464 57.608 42.592 58.344C42.592 58.344 42.576 58.408 42.544 58.536C42.512 58.632 42.464 58.76 42.4 58.92C41.664 61.544 40.736 63.608 39.616 65.112C38.528 66.616 37.232 67.672 35.728 68.28C34.224 68.888 32.496 69.192 30.544 69.192ZM27.424 17.736C25.696 17.736 24.24 17.192 23.056 16.104C21.872 14.984 21.28 13.16 21.28 10.632C21.28 8.744 21.904 7.272 23.152 6.216C24.4 5.128 25.984 4.584 27.904 4.584C29.792 4.584 31.344 5.16 32.56 6.31199C33.808 7.46399 34.432 9.288 34.432 11.784C34.432 13.256 33.776 14.616 32.464 15.864C31.184 17.112 29.504 17.736 27.424 17.736ZM46.912 25.8C47.584 25.992 48.064 26.328 48.352 26.808C48.64 27.288 48.784 27.816 48.784 28.392C48.784 29.16 48.64 29.832 48.352 30.408C48.064 30.984 47.648 31.384 47.104 31.608C46.56 31.832 45.888 31.848 45.088 31.656C44.8 31.624 44.496 31.56 44.176 31.464C43.856 31.368 43.552 31.304 43.264 31.272C42.528 31.08 41.984 30.76 41.632 30.312C41.28 29.864 41.104 29.304 41.104 28.632C41.104 27.224 41.408 26.216 42.016 25.608C42.624 24.968 43.584 24.808 44.896 25.128C45.184 25.224 45.52 25.336 45.904 25.464C46.288 25.592 46.624 25.704 46.912 25.8ZM17.632 23.4C19.264 22.952 20.752 22.632 22.096 22.44C23.44 22.216 24.496 22.296 25.264 22.68C26.064 23.032 26.464 23.864 26.464 25.176C26.464 26.168 25.904 27 24.784 27.672C23.664 28.312 21.856 29 19.36 29.736C17.632 30.248 15.856 30.728 14.032 31.176C12.24 31.624 10.432 32.072 8.608 32.52C6.4 33.032 4.512 33.288 2.944 33.288C1.376 33.256 0.592 32.328 0.592 30.504C0.592 29.672 1.104 28.984 2.128 28.44C3.152 27.864 4.8 27.208 7.072 26.472C8.8 25.896 10.528 25.368 12.256 24.888C14.016 24.376 15.808 23.88 17.632 23.4ZM8.128 10.056C9.152 9.896 10.032 10.072 10.768 10.584C11.504 11.064 11.872 11.816 11.872 12.84C11.872 13.8 11.664 14.504 11.248 14.952C10.832 15.368 10.048 15.752 8.896 16.104C8.608 16.2 8.304 16.28 7.984 16.344C7.664 16.376 7.328 16.424 6.976 16.488C6.112 16.616 5.424 16.232 4.912 15.336C4.432 14.44 4.192 13.608 4.192 12.84C4.192 12.36 4.336 11.912 4.624 11.496C4.912 11.048 5.408 10.728 6.112 10.536C6.4 10.44 6.72 10.344 7.072 10.248C7.456 10.152 7.808 10.088 8.128 10.056Z" fill="#FFA500"/>
<path d="M74.544 69.672C74.16 69.672 73.8187 69.5227 73.52 69.224C73.4347 69.096 73.3493 68.968 73.264 68.84C73.1787 68.712 73.0933 68.584 73.008 68.456C72.624 67.56 72.432 66.6213 72.432 65.64L72.24 64.104C72.112 63.5067 72.0053 62.9093 71.92 62.312C71.8347 61.7147 71.6853 61.1387 71.472 60.584L71.088 59.496C71.088 59.4107 71.0667 59.3253 71.024 59.24C71.024 59.1547 71.0027 59.0693 70.96 58.984L70 55.592C69.9573 55.5067 69.9147 55.4 69.872 55.272C69.872 55.144 69.8293 55.0373 69.744 54.952C69.616 54.696 69.5093 54.44 69.424 54.184C69.3813 53.8853 69.3173 53.5867 69.232 53.288C69.1893 53.0747 69.1467 52.8827 69.104 52.712C69.0613 52.4987 68.9973 52.2853 68.912 52.072C68.8267 51.816 68.7413 51.6667 68.656 51.624C68.5707 51.5387 68.3787 51.5387 68.08 51.624C67.8667 51.6667 67.632 51.7093 67.376 51.752C67.1627 51.752 66.9493 51.7947 66.736 51.88C66.5653 51.9227 66.352 51.9653 66.096 52.008C65.8827 52.008 65.6693 52.0293 65.456 52.072L64.56 52.264C64.3467 52.3067 64.112 52.3707 63.856 52.456C63.6427 52.4987 63.4293 52.52 63.216 52.52L62.064 52.712C61.7227 52.7973 61.36 52.8827 60.976 52.968C60.592 53.0533 60.2293 53.1387 59.888 53.224C58.864 53.48 57.84 53.672 56.816 53.8C56.4747 53.8853 56.2827 54.0347 56.24 54.248C56.1973 54.248 56.176 54.2693 56.176 54.312C55.92 54.9947 55.6213 55.6773 55.28 56.36C54.9813 57 54.6613 57.6613 54.32 58.344C54.2347 58.5147 54.1493 58.6853 54.064 58.856C54.0213 58.984 53.9573 59.1333 53.872 59.304C53.8293 59.3893 53.7867 59.496 53.744 59.624C53.7013 59.7093 53.6587 59.7947 53.616 59.88C53.36 60.1787 53.232 60.5413 53.232 60.968C53.1893 61.224 53.104 61.48 52.976 61.736C52.848 61.9493 52.72 62.1627 52.592 62.376C52.5493 62.504 52.464 62.568 52.336 62.568C52.1653 62.6107 51.9947 62.6747 51.824 62.76C51.6533 62.8453 51.4613 62.9307 51.248 63.016C51.12 63.0587 50.992 63.0587 50.864 63.016C50.7787 62.9733 50.672 62.9307 50.544 62.888C50.4587 62.8027 50.3733 62.76 50.288 62.76C49.8187 62.7173 49.4773 62.44 49.264 61.928C48.9227 61.2453 48.688 60.5627 48.56 59.88C48.5173 59.7093 48.5173 59.56 48.56 59.432C48.6453 59.304 48.7093 59.176 48.752 59.048C49.008 58.8773 49.1573 58.6853 49.2 58.472V58.408C49.2 57.8533 49.3067 57.3413 49.52 56.872C49.776 56.36 49.9893 55.8693 50.16 55.4C50.2453 55.144 50.352 54.888 50.48 54.632C50.608 54.376 50.736 54.12 50.864 53.864C51.0347 53.5653 51.1627 53.288 51.248 53.032C51.376 52.7333 51.4827 52.4347 51.568 52.136C51.696 51.7947 51.696 51.4747 51.568 51.176C51.4827 50.92 51.44 50.6853 51.44 50.472C51.44 50.216 51.4613 49.96 51.504 49.704C51.504 49.2347 51.6747 48.8293 52.016 48.488C52.1867 48.2747 52.3573 48.104 52.528 47.976C52.7413 47.8053 52.9333 47.6347 53.104 47.464C53.488 47.08 53.7867 46.568 54 45.928C54.1707 45.3733 54.2987 44.8187 54.384 44.264C54.512 43.6667 54.64 43.0907 54.768 42.536C54.8533 41.9813 54.9387 41.448 55.024 40.936C55.152 40.3813 55.28 39.848 55.408 39.336C55.4507 39.1227 55.4933 38.9307 55.536 38.76C55.6213 38.5467 55.6853 38.3547 55.728 38.184C55.856 37.8427 55.984 37.5227 56.112 37.224C56.24 36.8827 56.3253 36.5413 56.368 36.2C56.4533 36.0293 56.4533 35.88 56.368 35.752C56.3253 35.5387 56.3253 35.3467 56.368 35.176C56.4533 35.0053 56.5173 34.8347 56.56 34.664C56.688 34.3653 56.7733 34.0667 56.816 33.768C56.9013 33.4693 57.008 33.1707 57.136 32.872C57.3493 32.3173 57.52 31.8693 57.648 31.528C57.8187 31.144 57.968 30.7173 58.096 30.248C58.1813 29.992 58.2667 29.7573 58.352 29.544C58.48 29.288 58.5653 29.032 58.608 28.776C58.736 28.392 58.8427 28.008 58.928 27.624C59.0133 27.1973 59.056 26.792 59.056 26.408C59.1413 26.0667 59.2267 25.832 59.312 25.704C59.5253 25.2773 59.7813 24.9147 60.08 24.616C60.4213 24.3173 60.7413 24.0187 61.04 23.72C61.2533 23.592 61.4667 23.5067 61.68 23.464C61.8933 23.3787 62.1067 23.4 62.32 23.528C62.4907 23.6133 62.5973 23.656 62.64 23.656C63.024 23.6133 63.344 23.6987 63.6 23.912C63.856 24.1253 64.0693 24.3813 64.24 24.68C64.3253 24.7653 64.3893 24.872 64.432 25C64.4747 25.128 64.5173 25.2347 64.56 25.32C64.7733 25.6613 64.88 26.0027 64.88 26.344C64.88 26.5147 64.9013 26.7067 64.944 26.92C64.9867 27.0907 65.0293 27.2827 65.072 27.496C65.2 27.752 65.392 27.88 65.648 27.88C65.6907 27.8373 65.7333 27.8373 65.776 27.88C65.8187 27.9227 65.84 27.9653 65.84 28.008C66.0533 28.264 66.1173 28.5413 66.032 28.84C65.9467 29.1813 65.9253 29.5227 65.968 29.864C66.0533 30.1627 66.1387 30.4827 66.224 30.824C66.3947 31.2507 66.5653 31.6773 66.736 32.104C66.9067 32.5307 67.0773 32.9573 67.248 33.384C67.4613 33.8533 67.6747 34.3227 67.888 34.792C68.1013 35.2613 68.2933 35.7307 68.464 36.2C68.6773 36.7973 68.8907 37.3947 69.104 37.992C69.36 38.5893 69.6373 39.1867 69.936 39.784L70.128 40.488C70.1707 40.6587 70.2133 40.8293 70.256 41C70.3413 41.1707 70.4053 41.3413 70.448 41.512C70.5333 41.64 70.5973 41.768 70.64 41.896C70.7253 42.024 70.8107 42.1307 70.896 42.216C71.1093 42.5147 71.2373 42.8347 71.28 43.176C71.408 43.6027 71.6 43.9867 71.856 44.328C71.9413 44.456 72.0693 44.52 72.24 44.52C72.88 44.4347 73.52 44.3707 74.16 44.328C74.8 44.2427 75.44 44.1147 76.08 43.944C76.5493 43.816 76.9973 43.752 77.424 43.752C78.2347 43.752 78.9813 44.0293 79.664 44.584C80.4747 45.224 80.9013 46.0347 80.944 47.016C80.944 47.2293 80.9653 47.4 81.008 47.528C81.008 47.8267 80.9227 48.0613 80.752 48.232C80.7093 48.36 80.624 48.488 80.496 48.616C80.4107 48.744 80.3253 48.872 80.24 49C80.1547 49.1707 80.0693 49.2987 79.984 49.384L79.6 49.704C79.5573 49.7893 79.4933 49.896 79.408 50.024C79.3227 50.1093 79.216 50.1733 79.088 50.216C78.9173 50.2587 78.7467 50.3227 78.576 50.408C78.4053 50.4507 78.2133 50.472 78 50.472C77.232 50.5573 76.5493 50.536 75.952 50.408H74.928C74.8427 50.408 74.7147 50.4507 74.544 50.536C74.3733 50.6213 74.288 50.728 74.288 50.856V51.112C74.416 51.496 74.5013 51.9013 74.544 52.328C74.6293 52.712 74.7573 53.0747 74.928 53.416C74.928 53.5867 74.9707 53.7573 75.056 53.928C75.2693 54.312 75.44 54.7173 75.568 55.144C75.696 55.528 75.8027 55.9333 75.888 56.36C75.888 56.4453 75.9307 56.616 76.016 56.872C76.144 57.1707 76.2507 57.4907 76.336 57.832C76.4213 58.1307 76.4853 58.4507 76.528 58.792C76.528 59.048 76.592 59.2827 76.72 59.496C76.8907 59.88 77.0187 60.264 77.104 60.648C77.1893 61.032 77.2533 61.4373 77.296 61.864C77.3387 61.9067 77.36 61.992 77.36 62.12C77.36 62.2053 77.3813 62.2907 77.424 62.376C77.6373 62.8453 77.7867 63.3573 77.872 63.912C77.9573 64.424 78.064 64.936 78.192 65.448C78.2773 65.704 78.32 65.96 78.32 66.216C78.3627 66.5147 78.384 66.8133 78.384 67.112C78.384 67.3253 78.32 67.56 78.192 67.816C78.064 67.944 78 68.008 78 68.008C77.744 68.0507 77.5947 68.2 77.552 68.456L77.36 68.84C77.2747 69.0107 77.1467 69.1173 76.976 69.16C76.8053 69.16 76.656 69.224 76.528 69.352C76.3573 69.5227 76.1227 69.608 75.824 69.608C75.6533 69.608 75.44 69.608 75.184 69.608C74.9707 69.608 74.7573 69.6293 74.544 69.672ZM59.12 46.44C59.376 46.3973 59.632 46.3547 59.888 46.312C60.1867 46.2693 60.5067 46.2267 60.848 46.184C61.0613 46.1413 61.3387 46.0987 61.68 46.056C62.0213 46.0133 62.3413 45.9707 62.64 45.928C62.9387 45.8427 63.2373 45.8 63.536 45.8C63.8347 45.7573 64.1333 45.7147 64.432 45.672C64.688 45.5867 64.944 45.544 65.2 45.544C65.456 45.5013 65.712 45.4587 65.968 45.416C66.352 45.3307 66.5013 45.1173 66.416 44.776C66.3733 44.4347 66.288 44.0933 66.16 43.752C66.0747 43.368 65.8827 43.048 65.584 42.792C65.4987 42.7067 65.456 42.5787 65.456 42.408V42.216C65.3707 41.8747 65.264 41.5547 65.136 41.256C65.0507 40.9147 64.944 40.5947 64.816 40.296C64.7307 39.9547 64.624 39.656 64.496 39.4C64.4107 39.1013 64.304 38.8027 64.176 38.504L63.408 36.2C63.28 35.9013 63.152 35.6027 63.024 35.304C62.9387 35.0053 62.8533 34.7067 62.768 34.408L62.576 34.152H62.384L62.256 34.344C62.0427 34.984 61.7867 35.624 61.488 36.264C61.232 36.904 60.9973 37.5867 60.784 38.312C60.784 38.3973 60.7627 38.504 60.72 38.632C60.6773 38.76 60.6347 38.888 60.592 39.016C60.4213 39.4427 60.2507 39.912 60.08 40.424C59.952 40.936 59.8453 41.448 59.76 41.96C59.7173 42.2587 59.6747 42.5573 59.632 42.856C59.5893 43.112 59.5253 43.3893 59.44 43.688L58.864 46.184C58.8213 46.2267 58.8427 46.2907 58.928 46.376C59.0133 46.4187 59.0773 46.44 59.12 46.44ZM91.6845 66.28C90.8738 66.3653 90.2125 66.1093 89.7005 65.512C89.4445 65.256 89.2098 64.9787 88.9965 64.68C88.7832 64.3813 88.6125 64.0613 88.4845 63.72C88.2712 63.1227 88.0792 62.5253 87.9085 61.928C87.7378 61.288 87.5885 60.6693 87.4605 60.072C87.3325 59.6027 87.2685 59.1547 87.2685 58.728C87.2258 58.2587 87.1618 57.8107 87.0765 57.384C87.0338 56.9147 87.0125 56.4453 87.0125 55.976C87.0125 55.72 87.0125 55.464 87.0125 55.208C87.0125 54.9093 86.9912 54.632 86.9485 54.376C86.9058 54.2053 86.8845 54.056 86.8845 53.928C86.8845 53.8 86.8845 53.6507 86.8845 53.48C86.8845 52.8827 86.8845 52.2853 86.8845 51.688C86.8845 51.048 86.8632 50.4293 86.8205 49.832C86.8205 49.4907 86.7992 49.192 86.7565 48.936C86.7138 48.6373 86.6285 48.3387 86.5005 48.04C86.3298 47.5707 86.3085 47.0587 86.4365 46.504C86.4365 46.376 86.4578 46.2907 86.5005 46.248C86.5858 45.9493 86.6285 45.6507 86.6285 45.352C86.6712 45.0533 86.6712 44.7547 86.6285 44.456C86.5858 44.2427 86.5645 44.0293 86.5645 43.816C86.5645 43.6027 86.5645 43.4107 86.5645 43.24C86.5218 42.7707 86.5005 42.3013 86.5005 41.832C86.5432 41.32 86.5858 40.8293 86.6285 40.36C86.6712 40.232 86.6925 40.104 86.6925 39.976C86.6925 39.848 86.6925 39.72 86.6925 39.592C86.6498 39.1227 86.6498 38.6747 86.6925 38.248C86.7778 37.8213 86.8418 37.3947 86.8845 36.968C86.9698 36.456 87.0552 35.9653 87.1405 35.496C87.2258 34.984 87.3325 34.472 87.4605 33.96C87.5458 33.7467 87.5885 33.512 87.5885 33.256C87.5885 33 87.5885 32.744 87.5885 32.488C87.5885 32.2747 87.5672 32.0613 87.5245 31.848C87.5245 31.6347 87.5245 31.4427 87.5245 31.272C87.5245 31.144 87.5245 31.016 87.5245 30.888C87.5245 30.76 87.5458 30.632 87.5885 30.504C87.6312 30.376 87.6525 30.248 87.6525 30.12C87.6525 29.992 87.6738 29.9067 87.7165 29.864C87.8445 29.6933 87.9512 29.544 88.0365 29.416C88.1218 29.2453 88.2498 29.096 88.4205 28.968C88.6338 28.84 88.8258 28.712 88.9965 28.584C89.2098 28.456 89.4018 28.3493 89.5725 28.264C89.7858 28.1787 89.9565 28.072 90.0845 27.944C90.2552 27.7307 90.4258 27.5387 90.5965 27.368C90.8098 27.1547 90.9805 26.92 91.1085 26.664C91.3218 26.4507 91.5352 26.216 91.7485 25.96C92.0045 25.6613 92.2818 25.4267 92.5805 25.256C92.6658 25.2133 92.7938 25.1067 92.9645 24.936C93.4765 24.4667 94.0738 24.168 94.7565 24.04C94.8845 23.9973 94.9912 23.976 95.0765 23.976C95.2045 23.9333 95.3325 23.912 95.4605 23.912L95.9085 23.72C96.2498 23.592 96.5485 23.656 96.8045 23.912C96.8898 24.04 96.9965 24.168 97.1245 24.296C97.2952 24.3813 97.4445 24.4667 97.5725 24.552C97.9138 24.8507 98.2338 25.1707 98.5325 25.512C98.8738 25.8533 99.1725 26.2373 99.4285 26.664C99.8552 27.3467 100.218 28.0293 100.517 28.712C100.858 29.3947 101.178 30.0987 101.477 30.824L102.628 33.576C102.671 33.832 102.778 34.0667 102.949 34.28C103.29 34.92 103.546 35.5813 103.717 36.264C103.887 36.904 104.058 37.5653 104.229 38.248C104.271 38.3333 104.293 38.4187 104.293 38.504C104.335 38.5893 104.357 38.6747 104.357 38.76C104.442 39.1013 104.506 39.464 104.549 39.848C104.634 40.1893 104.655 40.5307 104.613 40.872C104.655 41.256 104.634 41.64 104.549 42.024C104.506 42.3653 104.442 42.7067 104.357 43.048C104.229 43.4747 104.079 43.88 103.909 44.264C103.738 44.6053 103.546 44.968 103.333 45.352C103.247 45.608 103.098 45.8427 102.885 46.056C102.671 46.2693 102.458 46.4613 102.245 46.632C101.903 46.8027 101.562 47.0587 101.221 47.4C101.135 47.4853 101.029 47.5493 100.901 47.592C100.815 47.6347 100.73 47.6987 100.645 47.784C100.346 47.912 100.026 48.0613 99.6845 48.232C99.3432 48.36 99.0018 48.488 98.6605 48.616C98.6178 48.616 98.5965 48.6587 98.5965 48.744C98.5965 48.7867 98.6178 48.8293 98.6605 48.872L100.389 50.088C100.602 50.216 100.794 50.344 100.965 50.472C101.135 50.5573 101.306 50.664 101.477 50.792L101.861 50.984C102.373 51.2827 102.885 51.6027 103.397 51.944C103.909 52.2853 104.399 52.6267 104.869 52.968C105.765 53.5227 106.661 54.0987 107.557 54.696C108.453 55.2507 109.306 55.8693 110.117 56.552C110.842 57.1067 111.482 57.7467 112.037 58.472C112.165 58.6 112.293 58.7493 112.421 58.92C112.549 59.048 112.698 59.1547 112.869 59.24L113.061 59.432C113.743 60.0293 114.127 60.84 114.213 61.864C114.213 61.992 114.191 62.12 114.149 62.248C114.149 62.376 114.149 62.504 114.149 62.632C114.149 62.888 114.063 63.1013 113.893 63.272C113.722 63.3573 113.637 63.464 113.637 63.592C113.509 63.8907 113.317 64.104 113.061 64.232C112.847 64.3173 112.634 64.4453 112.421 64.616C112.335 64.6587 112.186 64.68 111.973 64.68C111.717 64.6373 111.439 64.5947 111.141 64.552C110.885 64.5093 110.629 64.488 110.373 64.488C110.031 64.488 109.669 64.3387 109.285 64.04C109.029 63.8267 108.794 63.6347 108.581 63.464C108.367 63.2507 108.154 62.9947 107.941 62.696C107.386 61.928 106.661 61.224 105.765 60.584C105.338 60.2427 104.933 59.9227 104.549 59.624C104.165 59.3253 103.738 59.048 103.269 58.792C102.97 58.6213 102.671 58.4507 102.373 58.28C102.117 58.0667 101.818 57.8747 101.477 57.704C100.41 56.9787 99.3218 56.2747 98.2125 55.592C97.1032 54.8667 95.9938 54.1413 94.8845 53.416C94.7138 53.288 94.5218 53.16 94.3085 53.032C94.0952 52.904 93.8818 52.776 93.6685 52.648C93.5832 52.5627 93.4552 52.4773 93.2845 52.392C93.1138 52.392 93.0285 52.456 93.0285 52.584C93.0285 52.6267 93.0072 52.6693 92.9645 52.712C92.9645 52.712 92.9645 52.7333 92.9645 52.776C92.9645 52.904 92.9645 53.032 92.9645 53.16C92.9645 53.288 92.9858 53.416 93.0285 53.544C93.0712 53.8853 93.0925 54.2267 93.0925 54.568C93.0925 54.8667 93.0925 55.1867 93.0925 55.528C93.0925 55.784 93.0925 56.04 93.0925 56.296C93.1352 56.5093 93.1778 56.744 93.2205 57C93.2205 57.128 93.2205 57.2773 93.2205 57.448C93.2632 57.576 93.2845 57.704 93.2845 57.832C93.2418 58.216 93.2632 58.6 93.3485 58.984C93.4338 59.368 93.4978 59.752 93.5405 60.136L93.9245 61.8C93.9672 61.9707 94.0098 62.1627 94.0525 62.376C94.0952 62.5467 94.1378 62.7387 94.1805 62.952C94.2232 63.1227 94.2232 63.2933 94.1805 63.464C94.1805 63.592 94.1592 63.7413 94.1165 63.912C94.1165 63.9547 94.0738 64.0187 93.9885 64.104C93.7752 64.1467 93.6258 64.296 93.5405 64.552C93.4125 64.8507 93.2205 65.1067 92.9645 65.32C92.7512 65.576 92.5165 65.8107 92.2605 66.024C92.2178 66.0667 92.1325 66.1093 92.0045 66.152C91.8765 66.1947 91.7698 66.2373 91.6845 66.28ZM94.1805 43.88H94.3085C94.7778 43.7947 95.2472 43.7093 95.7165 43.624C96.2285 43.496 96.7192 43.3467 97.1885 43.176C97.6578 43.048 98.0632 42.8133 98.4045 42.472C98.7032 42.1733 98.8525 41.832 98.8525 41.448C98.8952 41.1493 98.8952 40.872 98.8525 40.616C98.8525 40.3173 98.8098 40.0187 98.7245 39.72C98.5538 38.952 98.3618 38.2053 98.1485 37.48C97.9352 36.712 97.6792 35.9867 97.3805 35.304L96.8045 33.768C96.6765 33.3413 96.5272 32.936 96.3565 32.552C96.1858 32.1253 95.9938 31.72 95.7805 31.336C95.7378 31.2507 95.6952 31.1653 95.6525 31.08C95.6098 30.952 95.5672 30.8453 95.5245 30.76L95.2685 30.504C95.1405 30.3333 94.9912 30.3333 94.8205 30.504C94.7778 30.504 94.7138 30.5467 94.6285 30.632C94.3298 31.016 94.0525 31.4213 93.7965 31.848C93.5832 32.2747 93.4552 32.744 93.4125 33.256C93.3698 33.4267 93.3272 33.5973 93.2845 33.768C93.2845 33.9387 93.2845 34.1307 93.2845 34.344V37.096C93.2418 37.6933 93.2205 38.312 93.2205 38.952C93.2632 39.592 93.2418 40.2107 93.1565 40.808C93.1138 40.936 93.0925 41.064 93.0925 41.192C93.1352 41.32 93.1565 41.448 93.1565 41.576C93.1992 41.832 93.2205 42.088 93.2205 42.344C93.2205 42.5573 93.2205 42.792 93.2205 43.048C93.2205 43.4747 93.2632 43.7307 93.3485 43.816C93.4765 43.9013 93.7538 43.9227 94.1805 43.88ZM129.579 65.64C129.536 65.5973 129.472 65.576 129.387 65.576C128.96 65.32 128.533 65.0853 128.107 64.872C127.723 64.616 127.36 64.3387 127.019 64.04C126.848 63.9547 126.741 63.8693 126.699 63.784C126.315 63.5707 125.973 63.3147 125.675 63.016C125.376 62.6747 125.099 62.312 124.843 61.928C124.757 61.8427 124.672 61.736 124.587 61.608C124.501 61.48 124.395 61.352 124.267 61.224C123.84 60.7973 123.499 60.2853 123.243 59.688C123.2 59.56 123.136 59.432 123.051 59.304C122.965 59.176 122.88 59.048 122.795 58.92C122.539 58.5787 122.347 58.2587 122.219 57.96C122.133 57.6187 122.005 57.2987 121.835 57C121.664 56.6587 121.493 56.3387 121.323 56.04C121.28 55.8693 121.216 55.6987 121.131 55.528C121.045 55.3573 120.981 55.1867 120.939 55.016C120.939 54.8027 120.875 54.568 120.747 54.312C120.576 53.8427 120.405 53.3733 120.235 52.904C120.107 52.392 119.979 51.88 119.851 51.368C119.765 51.1973 119.723 51.0693 119.723 50.984C119.467 50.4293 119.275 49.8533 119.147 49.256C119.019 48.6587 118.891 48.0827 118.763 47.528L118.379 44.648C118.336 44.5627 118.315 44.456 118.315 44.328C118.315 44.2 118.315 44.0933 118.315 44.008C118.315 43.752 118.315 43.5173 118.315 43.304C118.315 43.048 118.272 42.792 118.187 42.536C118.101 41.9813 118.123 41.4693 118.251 41C118.251 40.8293 118.251 40.68 118.251 40.552C118.293 40.3813 118.315 40.2107 118.315 40.04C118.315 39.8267 118.315 39.6133 118.315 39.4C118.357 39.144 118.4 38.9307 118.443 38.76C118.485 38.632 118.507 38.4613 118.507 38.248C118.592 37.864 118.635 37.5013 118.635 37.16C118.677 36.776 118.72 36.4133 118.763 36.072C118.891 35.4747 118.955 34.8987 118.955 34.344C118.955 34.1733 118.955 34.024 118.955 33.896C118.997 33.7253 119.04 33.5547 119.083 33.384C119.083 33 119.061 32.7227 119.019 32.552C118.891 32.3813 118.869 32.1467 118.955 31.848C119.04 31.6773 119.083 31.5493 119.083 31.464C119.125 31.3787 119.147 31.2933 119.147 31.208C119.147 31.08 119.211 30.9947 119.339 30.952H119.786C119.957 30.952 120.064 30.888 120.107 30.76C120.149 30.5893 120.299 30.4613 120.555 30.376C120.768 30.2907 120.96 30.2267 121.131 30.184C121.301 30.0987 121.472 29.992 121.643 29.864C121.771 29.7787 121.92 29.736 122.091 29.736C122.261 29.736 122.432 29.7573 122.603 29.8L123.755 30.184C123.797 30.2267 123.819 30.248 123.819 30.248C123.861 30.248 123.904 30.2693 123.947 30.312C124.288 30.6533 124.565 31.0373 124.779 31.464C125.035 31.8907 125.184 32.36 125.227 32.872C125.227 33.0427 125.227 33.2133 125.227 33.384C125.227 33.512 125.184 33.6613 125.099 33.832C125.056 34.088 125.013 34.344 124.97 34.6C124.928 34.856 124.885 35.1333 124.843 35.432C124.757 35.8587 124.693 36.2853 124.651 36.712C124.651 37.096 124.651 37.5013 124.651 37.928C124.608 38.0987 124.587 38.2693 124.587 38.44C124.587 38.568 124.565 38.7173 124.523 38.888C124.48 39.4 124.459 39.912 124.459 40.424C124.459 40.936 124.501 41.4267 124.587 41.896C124.587 41.9387 124.587 42.0027 124.587 42.088C124.629 42.1733 124.629 42.2587 124.587 42.344C124.587 42.7707 124.629 43.2187 124.715 43.688C124.8 44.1573 124.864 44.6267 124.907 45.096C124.949 45.5227 124.992 45.928 125.035 46.312C125.077 46.696 125.141 47.08 125.227 47.464C125.312 47.6347 125.355 47.8053 125.355 47.976C125.397 48.1467 125.44 48.3173 125.483 48.488C125.653 49.2987 125.845 50.088 126.059 50.856C126.272 51.624 126.549 52.392 126.891 53.16C127.104 53.6293 127.317 54.0347 127.531 54.376C127.872 54.9733 128.171 55.5707 128.427 56.168C128.597 56.4667 128.768 56.7653 128.939 57.064C129.109 57.32 129.28 57.5973 129.451 57.896C129.621 58.1093 129.792 58.3013 129.963 58.472C130.133 58.6427 130.304 58.8347 130.475 59.048C130.688 59.2613 130.965 59.3253 131.307 59.24C131.52 59.1547 131.669 59.0693 131.755 58.984C131.968 58.856 132.16 58.728 132.331 58.6C132.544 58.472 132.736 58.3227 132.907 58.152C133.376 57.6827 133.803 57.2133 134.187 56.744C134.613 56.2747 134.976 55.7627 135.275 55.208C135.531 54.7387 135.787 54.248 136.043 53.736C136.299 53.224 136.533 52.712 136.747 52.2C137.003 51.6027 137.237 51.0053 137.451 50.408C137.707 49.8107 137.941 49.192 138.155 48.552C138.325 48.1253 138.453 47.6987 138.539 47.272C138.667 46.8027 138.752 46.3547 138.795 45.928C138.88 45.4587 138.944 44.9893 138.987 44.52C139.072 44.008 139.093 43.5173 139.051 43.048C139.051 42.92 139.051 42.792 139.051 42.664C139.093 42.536 139.115 42.408 139.115 42.28C139.2 41.9813 139.221 41.704 139.179 41.448C139.179 41.192 139.157 40.936 139.115 40.68C139.072 39.9547 139.008 39.272 138.923 38.632C138.88 37.9493 138.837 37.2667 138.795 36.584C138.795 36.2427 138.773 36.008 138.731 35.88C138.688 35.496 138.645 35.112 138.603 34.728C138.603 34.344 138.56 33.96 138.475 33.576V33.064C138.475 32.6373 138.453 32.232 138.411 31.848C138.411 31.4213 138.411 30.9947 138.411 30.568C138.411 30.2267 138.389 29.928 138.347 29.672C138.347 29.3733 138.347 29.0747 138.347 28.776C138.347 28.392 138.411 28.072 138.539 27.816C138.667 27.6027 138.709 27.432 138.667 27.304C138.539 27.048 138.603 26.856 138.859 26.728C139.072 26.5147 139.285 26.344 139.499 26.216C139.755 26.088 140.032 26.0027 140.331 25.96C140.416 25.9173 140.48 25.896 140.523 25.896C140.608 25.896 140.672 25.8747 140.715 25.832C140.971 25.6187 141.312 25.5547 141.739 25.64C141.824 25.6827 141.952 25.704 142.123 25.704C142.507 25.7893 142.784 25.9387 142.955 26.152C143.083 26.28 143.275 26.4293 143.531 26.6C143.872 26.7707 144.107 26.984 144.235 27.24C144.363 27.496 144.448 27.7733 144.491 28.072C144.576 28.4987 144.64 28.904 144.683 29.288C144.768 29.672 144.789 30.0773 144.747 30.504V31.08C144.747 31.5067 144.747 31.9333 144.747 32.36C144.789 32.744 144.832 33.1493 144.875 33.576C144.917 33.704 144.939 33.8533 144.939 34.024C144.939 34.152 144.939 34.28 144.939 34.408C144.939 34.664 144.939 34.92 144.939 35.176C144.981 35.3893 145.024 35.624 145.067 35.88C145.109 35.9653 145.131 36.0933 145.131 36.264C145.088 36.6907 145.088 37.1173 145.131 37.544C145.216 37.928 145.28 38.3333 145.323 38.76C145.365 39.1867 145.387 39.6347 145.387 40.104C145.429 40.5733 145.451 41.0427 145.451 41.512C145.493 41.5547 145.493 41.6187 145.451 41.704C145.451 41.7893 145.451 41.8747 145.451 41.96C145.323 42.344 145.301 42.792 145.387 43.304C145.472 43.8587 145.451 44.392 145.323 44.904C145.28 45.288 145.237 45.672 145.195 46.056C145.152 46.44 145.088 46.8453 145.003 47.272C144.917 47.9547 144.768 48.6373 144.555 49.32C144.341 50.0027 144.128 50.6853 143.915 51.368C143.915 51.4533 143.851 51.6027 143.723 51.816C143.552 52.1147 143.403 52.4347 143.275 52.776C143.147 53.0747 143.04 53.3947 142.955 53.736L142.763 54.184C142.549 54.6107 142.357 55.0373 142.187 55.464C142.059 55.848 141.888 56.2533 141.675 56.68C141.547 56.936 141.419 57.192 141.291 57.448C141.163 57.704 141.013 57.9387 140.843 58.152C140.8 58.2373 140.736 58.3227 140.651 58.408C140.565 58.7067 140.437 58.984 140.267 59.24C140.096 59.496 139.925 59.752 139.755 60.008C139.285 60.7333 138.731 61.416 138.091 62.056C137.493 62.696 136.832 63.2933 136.107 63.848L135.339 64.296C134.741 64.5947 134.101 64.8507 133.419 65.064C132.779 65.2773 132.117 65.4267 131.435 65.512C131.221 65.5547 130.987 65.5547 130.731 65.512C130.603 65.512 130.475 65.512 130.347 65.512C130.219 65.512 130.091 65.5547 129.963 65.64H129.579ZM175.59 65.576C175.462 65.5333 175.312 65.4907 175.142 65.448C175.014 65.4053 174.886 65.3627 174.758 65.32C174.416 65.192 174.075 65.0213 173.734 64.808C173.563 64.7227 173.435 64.5947 173.35 64.424C173.051 63.9547 172.774 63.528 172.518 63.144C172.262 62.7173 171.984 62.2907 171.686 61.864L171.11 60.84C170.811 60.2427 170.512 59.6667 170.214 59.112C169.915 58.5147 169.616 57.9387 169.318 57.384C169.232 57.1707 169.126 57 168.998 56.872C168.912 56.7013 168.827 56.5307 168.742 56.36C168.443 55.8907 168.166 55.4213 167.91 54.952C167.654 54.44 167.398 53.9493 167.142 53.48L165.542 50.344C165.115 49.4907 164.688 48.6587 164.262 47.848C163.835 46.9947 163.408 46.1413 162.982 45.288C162.896 45.2027 162.811 45.0747 162.726 44.904C162.555 44.4347 162.342 43.9867 162.086 43.56C161.872 43.1333 161.659 42.7067 161.446 42.28C161.275 41.9813 161.126 41.6827 160.998 41.384C160.87 41.0427 160.72 40.7227 160.55 40.424L159.845 39.144C159.76 39.144 159.696 39.1227 159.654 39.08C159.654 39.08 159.632 39.1013 159.59 39.144C159.59 39.144 159.59 39.1653 159.59 39.208C159.547 39.7627 159.504 40.3387 159.462 40.936C159.419 41.5333 159.419 42.1307 159.462 42.728C159.547 42.984 159.547 43.2613 159.462 43.56C159.376 44.328 159.398 45.0107 159.526 45.608C159.568 45.7787 159.568 45.9493 159.526 46.12C159.526 46.2907 159.504 46.4827 159.462 46.696C159.419 46.9947 159.398 47.272 159.398 47.528C159.398 47.784 159.376 48.0613 159.334 48.36C159.419 48.5307 159.462 48.7227 159.462 48.936C159.462 49.1067 159.44 49.2773 159.398 49.448C159.27 49.8747 159.27 50.3227 159.398 50.792C159.483 50.92 159.483 51.048 159.398 51.176C159.227 51.56 159.184 52.0293 159.27 52.584C159.398 53.3093 159.355 54.0987 159.142 54.952C159.099 55.0373 159.078 55.1867 159.078 55.4C159.035 55.5707 159.078 55.72 159.206 55.848C159.376 55.9333 159.419 56.04 159.334 56.168C159.291 56.7227 159.291 57.2987 159.334 57.896C159.334 57.896 159.334 57.9173 159.334 57.96C159.334 57.96 159.312 57.96 159.27 57.96C159.227 57.96 159.206 57.9387 159.206 57.896C159.163 57.8533 159.142 57.8107 159.142 57.768C159.056 57.6827 159.014 57.704 159.014 57.832C159.014 58.0453 159.035 58.1733 159.078 58.216C159.163 58.4293 159.206 58.6427 159.206 58.856C159.206 59.0693 159.206 59.2827 159.206 59.496V61.48C159.206 61.608 159.184 61.736 159.142 61.864C159.142 61.992 159.078 62.0987 158.95 62.184C158.779 62.2267 158.694 62.376 158.694 62.632C158.651 63.1013 158.48 63.5067 158.182 63.848C157.926 64.1893 157.627 64.488 157.286 64.744C157.115 64.872 156.902 64.9573 156.646 65C156.432 65 156.219 64.9787 156.006 64.936L154.854 64.552C154.768 64.552 154.683 64.488 154.598 64.36C154.47 64.232 154.342 64.104 154.214 63.976C154.086 63.8053 153.936 63.656 153.766 63.528C153.552 63.4 153.403 63.1653 153.318 62.824C153.275 62.6107 153.211 62.376 153.126 62.12C153.04 61.864 152.998 61.608 152.998 61.352C152.998 61.0533 152.998 60.776 152.998 60.52C153.04 60.264 153.062 59.9867 153.062 59.688C153.104 59.4747 153.126 59.2827 153.126 59.112C153.126 58.8987 153.147 58.6853 153.19 58.472V35.048C153.19 34.8347 153.19 34.6213 153.19 34.408C153.232 34.1947 153.275 34.0027 153.318 33.832C153.318 33.6187 153.318 33.4053 153.318 33.192C153.36 32.9787 153.382 32.7653 153.382 32.552C153.382 32.296 153.382 32.04 153.382 31.784C153.424 31.528 153.467 31.2933 153.51 31.08C153.552 30.9093 153.574 30.76 153.574 30.632C153.574 30.504 153.574 30.3547 153.574 30.184V28.2C153.574 27.9013 153.595 27.6453 153.638 27.432C153.723 27.176 153.787 26.92 153.83 26.664L154.022 26.344C154.15 26.216 154.256 26.024 154.342 25.768C154.427 25.512 154.555 25.384 154.726 25.384C154.854 25.2987 154.982 25.2347 155.11 25.192C155.238 25.1067 155.323 24.9787 155.366 24.808L155.43 24.744C155.472 24.744 155.515 24.744 155.558 24.744C155.6 24.7013 155.643 24.68 155.686 24.68C155.856 24.68 155.984 24.6373 156.07 24.552C156.198 24.4667 156.347 24.4453 156.518 24.488C156.688 24.5307 156.859 24.552 157.03 24.552C157.2 24.552 157.371 24.5733 157.542 24.616C158.48 24.7867 159.142 25.3413 159.526 26.28L159.91 27.56C159.952 27.9867 160.144 28.392 160.486 28.776C160.742 29.0747 160.998 29.3947 161.254 29.736C161.51 30.0773 161.787 30.4187 162.086 30.76C163.195 32.168 164.219 33.7467 165.158 35.496C165.243 35.6667 165.328 35.8373 165.414 36.008C165.499 36.1787 165.584 36.3493 165.67 36.52L168.998 43.24C169.254 43.7093 169.488 44.2 169.702 44.712C169.958 45.1813 170.235 45.6507 170.534 46.12C170.619 46.2907 170.704 46.4613 170.79 46.632C170.875 46.76 170.939 46.9093 170.982 47.08C171.195 47.592 171.451 48.104 171.75 48.616C171.75 48.616 171.75 48.6373 171.75 48.68C171.792 48.68 171.814 48.6587 171.814 48.616C171.856 48.616 171.878 48.616 171.878 48.616C171.92 48.5733 171.942 48.552 171.942 48.552L172.134 46.312V45.672C172.176 45.4587 172.198 45.2453 172.198 45.032C172.24 44.776 172.283 44.5413 172.326 44.328C172.368 44.2 172.368 44.0507 172.326 43.88C172.326 43.7093 172.347 43.5387 172.39 43.368C172.39 43.112 172.39 42.856 172.39 42.6C172.432 42.3013 172.475 42.024 172.518 41.768C172.56 41.64 172.582 41.512 172.582 41.384C172.582 41.2133 172.582 41.064 172.582 40.936V39.208H172.518V37.48C172.518 37.2667 172.518 37.0533 172.518 36.84C172.518 36.6267 172.475 36.4133 172.39 36.2C172.347 36.072 172.326 35.88 172.326 35.624L172.39 35.176C172.39 35.048 172.368 34.9413 172.326 34.856C172.326 34.728 172.326 34.6 172.326 34.472C172.368 34.3013 172.347 34.1307 172.262 33.96C172.176 33.7893 172.134 33.6187 172.134 33.448C172.176 33.2773 172.198 33.1067 172.198 32.936C172.198 32.7653 172.198 32.5947 172.198 32.424C172.198 32.2533 172.112 32.168 171.942 32.168C171.899 32.168 171.878 32.1253 171.878 32.04C171.835 31.912 171.835 31.8053 171.878 31.72C171.963 31.5067 172.006 31.272 172.006 31.016C172.006 30.76 172.006 30.504 172.006 30.248V28.392C171.963 28.136 171.984 27.88 172.07 27.624C172.155 27.368 172.262 27.1333 172.39 26.92L172.646 26.536C172.859 26.3227 173.094 26.1093 173.35 25.896C173.606 25.6827 173.862 25.4693 174.118 25.256C174.118 25.256 174.203 25.2133 174.374 25.128C174.587 25.0853 174.779 25.0427 174.95 25C175.163 24.9573 175.376 24.9573 175.59 25C175.76 25 175.888 25.0213 175.974 25.064C176.144 25.1493 176.315 25.256 176.486 25.384C176.656 25.4693 176.827 25.576 176.998 25.704C177.083 25.7467 177.126 25.7893 177.126 25.832C177.168 25.8747 177.211 25.9173 177.254 25.96C177.339 26.0453 177.403 26.152 177.446 26.28C177.531 26.3653 177.595 26.4507 177.638 26.536C177.851 26.7067 177.979 26.92 178.022 27.176C178.107 27.3893 178.171 27.6027 178.214 27.816V30.504C178.214 30.8027 178.214 31.1013 178.214 31.4C178.256 31.656 178.299 31.9333 178.342 32.232C178.384 32.4027 178.406 32.5733 178.406 32.744C178.406 32.872 178.406 33.0213 178.406 33.192C178.406 33.5333 178.406 33.896 178.406 34.28C178.448 34.6213 178.47 34.9627 178.47 35.304V35.752C178.47 36.0507 178.448 36.3493 178.406 36.648C178.406 36.904 178.406 37.1813 178.406 37.48V40.296C178.406 40.7227 178.384 41.1707 178.342 41.64C178.342 42.0667 178.363 42.5147 178.406 42.984C178.406 43.1547 178.384 43.2827 178.342 43.368C178.299 43.7947 178.278 44.2213 178.278 44.648C178.278 45.032 178.256 45.4373 178.214 45.864C178.214 46.0347 178.214 46.2267 178.214 46.44C178.214 46.6533 178.192 46.8667 178.15 47.08C178.107 47.2507 178.086 47.4213 178.086 47.592C178.128 47.7627 178.15 47.9333 178.15 48.104C178.235 48.488 178.256 48.872 178.214 49.256C178.214 49.64 178.192 50.024 178.15 50.408C178.107 51.0907 178.064 51.7947 178.022 52.52C178.022 53.2027 178.064 53.9067 178.15 54.632C178.15 54.8027 178.15 54.9947 178.15 55.208C178.192 55.4213 178.214 55.6347 178.214 55.848C178.171 56.488 178.192 57.1067 178.278 57.704C178.406 58.3013 178.534 58.8987 178.662 59.496C178.747 59.9227 178.832 60.3493 178.918 60.776C179.003 61.16 179.067 61.5867 179.11 62.056C179.11 62.2267 179.088 62.3333 179.046 62.376C179.003 62.4613 178.96 62.568 178.918 62.696C178.875 62.7813 178.854 62.8667 178.854 62.952C178.811 63.2933 178.683 63.6133 178.47 63.912C178.299 64.2107 178.107 64.5093 177.894 64.808C177.339 65.5333 176.571 65.7893 175.59 65.576Z" fill="#305CDE"/>
</svg>
