<svg width="42" height="43" viewBox="0 0 42 43" fill="none" xmlns="http://www.w3.org/2000/svg">
<path d="M29.1996 19.0776C26.5123 19.0776 26.1389 21.7599 26.1389 21.7599H31.8522C31.8522 21.7599 31.8886 19.0776 29.1996 19.0776Z" fill="white"/>
<path d="M16.2371 21.7598H11.1724V26.4097H15.6563C15.7325 26.4097 15.8468 26.4114 15.9806 26.4097C16.7019 26.3927 18.0693 26.1828 18.0693 24.1491C18.0693 21.7352 16.2371 21.7598 16.2371 21.7598Z" fill="white"/>
<path d="M21.0012 0.318848C9.48658 0.318848 0.1521 9.65164 0.1521 21.1663C0.1521 32.6809 9.48658 42.0154 21.0012 42.0154C32.5142 42.0154 41.8487 32.6809 41.8487 21.1663C41.8487 9.65249 32.5133 0.318848 21.0012 0.318848ZM25.3895 13.1289H32.5667V15.271H25.3895V13.1289ZM21.7615 24.3658C21.7615 29.6753 16.237 29.5 16.237 29.5H11.1723H11.0241H7.1845V12.1044H11.0241H11.1723H16.237C18.987 12.1044 21.1579 13.6233 21.1579 16.7357C21.1579 19.848 18.5036 20.0461 18.5036 20.0461C22.0028 20.0461 21.7615 24.3658 21.7615 24.3658ZM35.188 24.0814H26.1735C26.1735 27.3122 29.2342 27.109 29.2342 27.109C32.1247 27.109 32.024 25.2371 32.024 25.2371H35.0864C35.0864 30.2044 29.1318 29.8641 29.1318 29.8641C21.9893 29.8641 22.449 23.2135 22.449 23.2135C22.449 23.2135 22.4423 16.5308 29.1318 16.5308C36.1735 16.5308 35.188 24.0814 35.188 24.0814Z" fill="white"/>
<path d="M17.4673 17.0059C17.4673 15.1965 16.2371 15.1965 16.2371 15.1965H15.5852H11.1724V19.0776H15.923C16.7426 19.0776 17.4673 18.8143 17.4673 17.0059Z" fill="white"/>
</svg>
