<svg width="41" height="41" viewBox="0 0 41 41" fill="none" xmlns="http://www.w3.org/2000/svg">
<path fill-rule="evenodd" clip-rule="evenodd" d="M20.5 0.8125C9.62793 0.8125 0.8125 9.84766 0.8125 21.001C0.8125 29.9219 6.45508 37.4805 14.2773 40.1523C15.2617 40.3369 15.6221 39.7129 15.6221 39.1768C15.6221 38.6934 15.6045 37.4277 15.5957 35.7402C10.1201 36.9619 8.95996 33.0332 8.95996 33.0332C8.06348 30.7041 6.77148 30.0801 6.77148 30.0801C4.98731 28.8232 6.90332 28.8496 6.90332 28.8496C8.88086 28.9902 9.91797 30.9326 9.91797 30.9326C11.6758 34.0176 14.5234 33.1299 15.6484 32.6113C15.8242 31.3105 16.334 30.4141 16.8965 29.9131C12.5283 29.4033 7.93164 27.6719 7.93164 19.9375C7.93164 17.7314 8.69629 15.9297 9.95312 14.5234C9.75098 14.0137 9.07422 11.957 10.1465 9.17969C10.1465 9.17969 11.7988 8.63477 15.5605 11.2451C17.1338 10.7969 18.8125 10.5771 20.4912 10.5684C22.1611 10.5771 23.8486 10.7969 25.4219 11.2451C29.1836 8.63477 30.8271 9.17969 30.8271 9.17969C31.8994 11.957 31.2227 14.0137 31.0205 14.5234C32.2773 15.9385 33.042 17.7402 33.042 19.9375C33.042 27.6895 28.4365 29.3945 24.0508 29.8955C24.7539 30.5195 25.3867 31.75 25.3867 33.6309C25.3867 36.3291 25.3603 38.5088 25.3603 39.168C25.3603 39.7041 25.7119 40.3369 26.7139 40.1348C34.5537 37.4717 40.1875 29.9131 40.1875 21.001C40.1875 9.84766 31.3721 0.8125 20.5 0.8125Z" fill="white"/>
</svg>
