<svg width="113" height="103" viewBox="0 0 113 103" fill="none" xmlns="http://www.w3.org/2000/svg">
<rect width="113" height="103" rx="13" fill="white"/>
<path d="M34.856 80.56H29.416L47.272 25.264H52.584L34.856 80.56ZM84.584 42.48C84.584 44.912 83.944 47.0667 82.664 48.944C81.384 50.7787 79.656 52.208 77.48 53.232C78.12 54.256 78.824 55.4293 79.592 56.752C80.4027 58.032 81.2133 59.4187 82.024 60.912C82.8347 62.3627 83.624 63.8773 84.392 65.456C85.2027 66.992 85.9493 68.5067 86.632 70H81C79.72 66.928 78.312 63.984 76.776 61.168C75.2827 58.352 73.832 56.0693 72.424 54.32C72.168 54.3627 71.784 54.384 71.272 54.384C70.8027 54.384 70.4827 54.384 70.312 54.384H65.832V70H60.52V30.96C61.16 30.7893 61.8853 30.64 62.696 30.512C63.5493 30.384 64.4027 30.2987 65.256 30.256C66.152 30.1707 67.0267 30.1067 67.88 30.064C68.7333 30.0213 69.5013 30 70.184 30C74.9627 30 78.5467 31.0453 80.936 33.136C83.368 35.2267 84.584 38.3413 84.584 42.48ZM70.632 34.544C69.6507 34.544 68.6907 34.5653 67.752 34.608C66.856 34.608 66.216 34.6507 65.832 34.736V50.032H69.224C70.76 50.032 72.1253 49.9253 73.32 49.712C74.5573 49.4987 75.6027 49.1147 76.456 48.56C77.352 47.9627 78.0347 47.1733 78.504 46.192C78.9733 45.168 79.208 43.8453 79.208 42.224C79.208 40.688 78.9733 39.4293 78.504 38.448C78.0347 37.4667 77.416 36.6987 76.648 36.144C75.88 35.5467 74.9627 35.1413 73.896 34.928C72.872 34.672 71.784 34.544 70.632 34.544Z" fill="black"/>
</svg>
  