<svg width="56" height="70" viewBox="0 0 56 70" fill="none" xmlns="http://www.w3.org/2000/svg">
<path d="M30.544 69.192C27.664 69.192 25.216 68.44 23.2 66.936C21.184 65.432 19.712 63.368 18.784 60.744C18.496 59.912 18.192 59.048 17.872 58.152C17.552 57.256 17.248 56.36 16.96 55.464C16.832 55.112 16.704 54.76 16.576 54.408C16.48 54.024 16.368 53.672 16.24 53.352C16.112 52.904 15.968 52.488 15.808 52.104C15.68 51.688 15.552 51.304 15.424 50.952C15.232 50.344 14.992 49.64 14.704 48.84C14.416 48.008 14.144 47.256 13.888 46.584C13.76 46.136 13.632 45.736 13.504 45.384C13.376 45.032 13.264 44.728 13.168 44.472C13.072 44.152 12.96 43.816 12.832 43.464C12.704 43.112 12.576 42.744 12.448 42.36C12.352 41.976 12.224 41.576 12.064 41.16C11.392 39.112 10.592 36.664 9.664 33.816C8.736 30.936 7.792 28.008 6.832 25.032C5.872 22.024 4.976 19.24 4.144 16.68C3.344 14.12 2.72 12.104 2.272 10.632C1.504 8.04 1.552 6.072 2.416 4.72799C3.28 3.352 4.576 2.664 6.304 2.664C7.456 2.664 8.432 3.096 9.232 3.96C10.064 4.824 10.72 6.12 11.2 7.848C12.896 13.544 14.544 19.432 16.144 25.512C17.776 31.56 19.52 37.448 21.376 43.176C21.92 44.936 22.528 46.2 23.2 46.968C23.904 47.736 24.8 48.12 25.888 48.12C26.912 48.12 27.856 47.768 28.72 47.064C29.584 46.328 30.368 45.16 31.072 43.56C33.824 37.16 36.448 30.76 38.944 24.36C41.44 17.928 44 11.528 46.624 5.16C47.296 3.56 48.064 2.408 48.928 1.704C49.792 0.999998 50.72 0.647999 51.712 0.647999C53.6 0.647999 54.768 1.336 55.216 2.712C55.696 4.088 55.712 5.736 55.264 7.65599C53.984 13.544 52.624 19.448 51.184 25.368C49.744 31.256 48.256 37.128 46.72 42.984C45.024 42.344 43.44 41.864 41.968 41.544C40.496 41.224 39.312 41.224 38.416 41.544C37.552 41.864 37.12 42.68 37.12 43.992C37.12 44.888 37.696 45.656 38.848 46.296C40.032 46.904 42.24 47.528 45.472 48.168C45.28 49.032 45.056 49.864 44.8 50.664C44.576 51.464 44.32 52.296 44.032 53.16C41.76 52.392 39.712 51.816 37.888 51.432C36.096 51.016 34.672 50.968 33.616 51.288C32.592 51.576 32.08 52.376 32.08 53.688C32.08 54.648 32.8 55.48 34.24 56.184C35.68 56.888 38.464 57.608 42.592 58.344C42.592 58.344 42.576 58.408 42.544 58.536C42.512 58.632 42.464 58.76 42.4 58.92C41.664 61.544 40.736 63.608 39.616 65.112C38.528 66.616 37.232 67.672 35.728 68.28C34.224 68.888 32.496 69.192 30.544 69.192ZM27.424 17.736C25.696 17.736 24.24 17.192 23.056 16.104C21.872 14.984 21.28 13.16 21.28 10.632C21.28 8.744 21.904 7.272 23.152 6.216C24.4 5.128 25.984 4.584 27.904 4.584C29.792 4.584 31.344 5.16 32.56 6.31199C33.808 7.46399 34.432 9.288 34.432 11.784C34.432 13.256 33.776 14.616 32.464 15.864C31.184 17.112 29.504 17.736 27.424 17.736ZM46.912 25.8C47.584 25.992 48.064 26.328 48.352 26.808C48.64 27.288 48.784 27.816 48.784 28.392C48.784 29.16 48.64 29.832 48.352 30.408C48.064 30.984 47.648 31.384 47.104 31.608C46.56 31.832 45.888 31.848 45.088 31.656C44.8 31.624 44.496 31.56 44.176 31.464C43.856 31.368 43.552 31.304 43.264 31.272C42.528 31.08 41.984 30.76 41.632 30.312C41.28 29.864 41.104 29.304 41.104 28.632C41.104 27.224 41.408 26.216 42.016 25.608C42.624 24.968 43.584 24.808 44.896 25.128C45.184 25.224 45.52 25.336 45.904 25.464C46.288 25.592 46.624 25.704 46.912 25.8ZM17.632 23.4C19.264 22.952 20.752 22.632 22.096 22.44C23.44 22.216 24.496 22.296 25.264 22.68C26.064 23.032 26.464 23.864 26.464 25.176C26.464 26.168 25.904 27 24.784 27.672C23.664 28.312 21.856 29 19.36 29.736C17.632 30.248 15.856 30.728 14.032 31.176C12.24 31.624 10.432 32.072 8.608 32.52C6.4 33.032 4.512 33.288 2.944 33.288C1.376 33.256 0.592 32.328 0.592 30.504C0.592 29.672 1.104 28.984 2.128 28.44C3.152 27.864 4.8 27.208 7.072 26.472C8.8 25.896 10.528 25.368 12.256 24.888C14.016 24.376 15.808 23.88 17.632 23.4ZM8.128 10.056C9.152 9.896 10.032 10.072 10.768 10.584C11.504 11.064 11.872 11.816 11.872 12.84C11.872 13.8 11.664 14.504 11.248 14.952C10.832 15.368 10.048 15.752 8.896 16.104C8.608 16.2 8.304 16.28 7.984 16.344C7.664 16.376 7.328 16.424 6.976 16.488C6.112 16.616 5.424 16.232 4.912 15.336C4.432 14.44 4.192 13.608 4.192 12.84C4.192 12.36 4.336 11.912 4.624 11.496C4.912 11.048 5.408 10.728 6.112 10.536C6.4 10.44 6.72 10.344 7.072 10.248C7.456 10.152 7.808 10.088 8.128 10.056Z" fill="#FFA500"/>
</svg>
