<svg width="48" height="47" viewBox="0 0 48 47" fill="none" xmlns="http://www.w3.org/2000/svg">
<path d="M4.064 46.88H0.896L17.264 0.415998H20.336L4.064 46.88ZM45.746 14.72C45.746 17.216 45.09 19.184 43.778 20.624C42.466 22.064 40.738 23.104 38.594 23.744C39.106 24.384 39.762 25.248 40.562 26.336C41.394 27.424 42.242 28.624 43.106 29.936C43.97 31.216 44.818 32.56 45.65 33.968C46.482 35.376 47.186 36.72 47.762 38H44.258C43.586 36.72 42.85 35.44 42.05 34.16C41.282 32.88 40.482 31.648 39.65 30.464C38.85 29.248 38.066 28.128 37.298 27.104C36.53 26.08 35.858 25.184 35.282 24.416C34.258 24.512 33.234 24.56 32.21 24.56H26.834V38H23.57V5.36C24.722 5.04 26.066 4.816 27.602 4.688C29.17 4.528 30.61 4.448 31.922 4.448C36.498 4.448 39.938 5.312 42.242 7.04C44.578 8.768 45.746 11.328 45.746 14.72ZM32.306 7.28C31.09 7.28 30.018 7.328 29.09 7.424C28.194 7.488 27.442 7.552 26.834 7.616V21.776H31.346C32.85 21.776 34.274 21.712 35.618 21.584C36.962 21.424 38.13 21.104 39.122 20.624C40.114 20.112 40.898 19.392 41.474 18.464C42.05 17.536 42.338 16.272 42.338 14.672C42.338 13.2 42.05 11.984 41.474 11.024C40.898 10.064 40.146 9.312 39.218 8.768C38.29 8.192 37.218 7.808 36.002 7.616C34.818 7.392 33.586 7.28 32.306 7.28Z" fill="white"/>
</svg>
